<?xml version="1.0" encoding="UTF-8"?>
<svg width="250px" height="30px" viewBox="0 0 250 30" version="1.1" xmlns="http://www.w3.org/2000/svg" xmlns:xlink="http://www.w3.org/1999/xlink">
    <!-- Generator: Sketch 40.1 (33804) - http://www.bohemiancoding.com/sketch -->
    <title>Group 2</title>
    <desc>Created with Sketch.</desc>
    <defs></defs>
    <g id="options" stroke="none" stroke-width="1" fill="none" fill-rule="evenodd">
        <g id="Artboard" transform="translate(-74.000000, -227.000000)" fill="#DD3333">
            <g id="Group" transform="translate(73.000000, 222.000000)">
                <g id="Group-2">
                    <text id="Choose-an-amount" font-family="BradleyHandITCTT-Bold, Bradley Hand" font-size="22" font-style="expanded" font-weight="bold">
                        <tspan x="41" y="19">Choose an amount</tspan>
                    </text>
                    <path d="M249.3715,35.753524 C248.592203,35.8746986 248.000782,36.1285353 247.486067,36.0195894 C244.74389,35.4400264 241.972808,34.9238299 239.301778,34.0945064 C235.377129,32.8760901 233.360517,29.8752582 232.564173,25.988777 C231.739667,21.9640752 231.926061,17.9519726 232.895458,13.9684035 C232.959566,13.7060438 232.993287,13.4366434 233.083705,12.9352695 C232.709064,13.1631667 232.492284,13.2791534 232.29255,13.4192268 C231.106743,14.2507737 229.9302,15.0956609 228.739576,15.9197965 C228.251172,16.258122 227.700884,16.4422926 227.237308,15.9209082 C226.735563,15.356909 227.125027,14.8303367 227.525607,14.4645895 C228.273777,13.781639 229.061227,13.1242574 229.906855,12.5695223 C231.216801,11.710183 232.574549,10.9190277 233.941932,10.1530707 C234.562999,9.80474002 234.864638,10.0733993 235.267812,10.7304103 C236.373948,12.5324658 237.66203,14.226687 238.942701,15.9146086 C239.16504,16.2073547 239.731263,16.2162482 240.088116,16.4378458 C240.370116,16.6131229 240.767732,16.9155035 240.765508,17.1582233 C240.762544,17.4687564 240.480915,17.9119517 240.19558,18.0605481 C239.301408,18.5267183 238.449109,18.1420723 237.833972,17.5213766 C236.994643,16.6746366 236.300947,15.6833764 235.552036,14.7480714 C235.368606,14.5190625 235.214451,14.266708 235.046956,14.0254705 C234.957279,14.0325112 234.867603,14.0399225 234.777926,14.0473338 C234.582639,15.2731614 234.328431,16.4934305 234.204292,17.72704 C233.883383,20.9109307 233.944526,24.0651764 235.016199,27.141974 C236.035252,30.0675812 238.15414,31.6943597 241.056772,32.4469763 C242.966291,32.9420506 244.886186,33.3974745 246.786442,33.925529 C247.732122,34.1882593 248.628889,34.5962509 249.3715,35.753524" id="Fill-1" transform="translate(238.185750, 23.023059) rotate(-195.000000) translate(-238.185750, -23.023059) "></path>
                    <path d="M25.3715,35.753524 C24.5922027,35.8746986 24.0007817,36.1285353 23.4860675,36.0195894 C20.7438897,35.4400264 17.9728078,34.9238299 15.3017784,34.0945064 C11.377129,32.8760901 9.36051665,29.8752582 8.56417339,25.988777 C7.73966722,21.9640752 7.9260612,17.9519726 8.89545811,13.9684035 C8.95956578,13.7060438 8.99328716,13.4366434 9.08370491,12.9352695 C8.70906413,13.1631667 8.49228386,13.2791534 8.29254956,13.4192268 C7.10674293,14.2507737 5.93020043,15.0956609 4.73957646,15.9197965 C4.25117236,16.258122 3.70088398,16.4422926 3.2373077,15.9209082 C2.73556327,15.356909 3.12502664,14.8303367 3.52560693,14.4645895 C4.2737768,13.781639 5.06122651,13.1242574 5.90685486,12.5695223 C7.21680061,11.710183 8.57454919,10.9190277 9.94193246,10.1530707 C10.5629987,9.80474002 10.8646382,10.0733993 11.2678125,10.7304103 C12.3739477,12.5324658 13.6620302,14.226687 14.9427013,15.9146086 C15.1650401,16.2073547 15.7312627,16.2162482 16.0881164,16.4378458 C16.370116,16.6131229 16.7677318,16.9155035 16.7655084,17.1582233 C16.7625439,17.4687564 16.4809148,17.9119517 16.1955801,18.0605481 C15.3014078,18.5267183 14.4491093,18.1420723 13.8339721,17.5213766 C12.9946434,16.6746366 12.3009465,15.6833764 11.5520355,14.7480714 C11.368606,14.5190625 11.2144512,14.266708 11.046956,14.0254705 C10.9572794,14.0325112 10.8676028,14.0399225 10.7779261,14.0473338 C10.5826386,15.2731614 10.3284313,16.4934305 10.2042922,17.72704 C9.88338325,20.9109307 9.94452641,24.0651764 11.0161991,27.141974 C12.0352517,30.0675812 14.1541399,31.6943597 17.0567722,32.4469763 C18.9662914,32.9420506 20.8861865,33.3974745 22.7864416,33.925529 C23.7321223,34.1882593 24.6288886,34.5962509 25.3715,35.753524" id="Fill-1-Copy" transform="translate(14.185750, 23.023059) scale(-1, 1) rotate(-195.000000) translate(-14.185750, -23.023059) "></path>
                </g>
            </g>
        </g>
    </g>
</svg>