<?xml version="1.0" encoding="UTF-8"?>
<svg width="12px" height="15px" viewBox="0 0 12 15" version="1.1" xmlns="http://www.w3.org/2000/svg" xmlns:xlink="http://www.w3.org/1999/xlink">
    <!-- Generator: Sketch 40.1 (33804) - http://www.bohemiancoding.com/sketch -->
    <title>Page 1</title>
    <desc>Created with Sketch.</desc>
    <defs></defs>
    <g id="options" stroke="none" stroke-width="1" fill="none" fill-rule="evenodd">
        <g id="Artboard" transform="translate(-129.000000, -447.000000)" fill="#059778">
            <path d="M138.916667,452.083333 L138.208333,452.083333 L138.208333,450.666667 C138.208333,448.711667 136.621667,447.125 134.666667,447.125 C132.711667,447.125 131.125,448.711667 131.125,450.666667 L131.125,452.083333 L130.416667,452.083333 C129.633958,452.083333 129,452.717292 129,453.5 L129,460.583333 C129,461.366041 129.633958,462 130.416667,462 L138.916667,462 C139.699375,462 140.333333,461.366041 140.333333,460.583333 L140.333333,453.5 C140.333333,452.717292 139.699375,452.083333 138.916667,452.083333 L138.916667,452.083333 Z M134.666667,458.458333 C133.883958,458.458333 133.25,457.824375 133.25,457.041667 C133.25,456.258958 133.883958,455.625 134.666667,455.625 C135.449375,455.625 136.083333,456.258958 136.083333,457.041667 C136.083333,457.824375 135.449375,458.458333 134.666667,458.458333 L134.666667,458.458333 Z M136.8625,452.083333 L132.470833,452.083333 L132.470833,450.666667 C132.470833,449.455417 133.455417,448.470833 134.666667,448.470833 C135.877917,448.470833 136.8625,449.455417 136.8625,450.666667 L136.8625,452.083333 L136.8625,452.083333 Z" id="Page-1"></path>
        </g>
    </g>
</svg>