<?xml version="1.0" encoding="UTF-8"?>
<svg width="131px" height="20px" viewBox="0 0 131 20" version="1.1" xmlns="http://www.w3.org/2000/svg" xmlns:xlink="http://www.w3.org/1999/xlink">
    <!-- Generator: Sketch 40.1 (33804) - http://www.bohemiancoding.com/sketch -->
    <title>Page 1</title>
    <desc>Created with Sketch.</desc>
    <defs>
        <path d="M16.0671524,0.32467619 C17.0997381,0.353180952 17.6292667,0.3839 18.270219,0.3839 C18.9122762,0.3839 19.6094905,0.354290476 20.3067095,0.32467619 C20.4732905,0.501261905 20.4732905,1.12424762 20.3067095,1.30192857 C18.8560143,1.53883333 18.2503619,2.66634762 17.564181,4.0549 L15.5254857,8.1734 L19.0932,16.0155429 L19.2211714,16.0155429 L24.5186857,3.84760952 C25.1794952,2.24517619 25.1320619,1.44889524 23.319519,1.30192857 C23.1518333,1.12424762 23.1518333,0.502357143 23.319519,0.32467619 C24.6301095,0.353180952 25.4387476,0.3839 26.0808048,0.3839 C26.7228619,0.3839 27.4200762,0.354290476 28.5354,0.32467619 C28.7030857,0.501261905 28.7030857,1.12424762 28.5354,1.30192857 C26.6941762,1.53883333 26.3742524,2.6696381 25.7939762,4.0549 L19.1913857,19.1545905 C18.996119,19.5987952 18.8284333,19.8357048 18.5228524,19.8357048 C18.2437429,19.8357048 18.0286238,19.5955048 17.8807952,19.1545905 L14.1288476,10.5600429 L10.0150524,19.1545905 C9.84847143,19.5987952 9.6521,19.8357048 9.34541429,19.8357048 C9.06740952,19.8357048 8.87104286,19.5987952 8.7044619,19.1545905 L2.63691857,3.99677143 C1.78635952,1.8942 1.73009667,1.45109048 0.140400238,1.30302381 C-0.0272846048,1.1253381 -0.0548643333,0.503452381 0.112820476,0.325771429 C1.42341,0.35427619 1.89778143,0.385 3.01310619,0.385 C4.10085095,0.385 4.79806667,0.355390476 6.1097619,0.325771429 C6.27744286,0.502357143 6.27744286,1.1253381 6.1097619,1.30302381 C4.35237857,1.50921905 4.27736143,1.97755714 4.97788571,3.67101905 L10.0845524,16.0166333 L10.2125238,16.0166333 L13.3279286,9.28994286 L10.9770333,3.99677143 C10.0426333,1.8942 9.81978571,1.48070476 8.61951429,1.30302381 C8.45293333,1.1253381 8.42425238,0.503452381 8.5919381,0.325771429 C9.48441905,0.35427619 9.95879048,0.385 11.0741143,0.385 C12.1618619,0.385 12.6086524,0.355390476 13.6125571,0.325771429 C13.7802381,0.502357143 13.7802381,1.1253381 13.6125571,1.30302381 C12.4409667,1.48070476 12.5523905,1.98304286 13.3169,3.67101905 L14.6892667,6.662 L14.8117238,6.79471429 L16.2899952,3.8487 C17.1515857,2.13220476 17.266319,1.48070476 16.0671524,1.30302381 C15.8994667,1.12314762 15.8994667,0.501261905 16.0671524,0.32467619 L16.0671524,0.32467619 Z" id="path-1"></path>
        <path d="M4.47585238,10.1963048 C4.47585238,12.6531476 4.7825381,12.7726952 6.48365714,12.8900524 C6.65134286,13.0677381 6.65134286,13.6896238 6.48365714,13.8673048 C5.28449048,13.8388 4.58727619,13.808081 3.38810952,13.808081 C2.16025714,13.808081 1.4354619,13.8376905 0.26387619,13.8673048 C0.0972952381,13.6896238 0.0972952381,13.0677381 0.26387619,12.8900524 C1.96499524,12.7419857 2.27278095,12.6531476 2.27278095,10.1963048 L2.27278095,3.80084762 C2.27278095,1.34400476 1.96609524,1.22555238 0.26387619,1.1071 C0.0972952381,0.929419048 0.0972952381,0.307528571 0.26387619,0.129847619 C1.46304286,0.159457143 2.16025714,0.189071429 3.36052857,0.189071429 C4.58727619,0.189071429 5.31317619,0.160566667 6.4847619,0.129847619 C6.65244762,0.307528571 6.65244762,0.929419048 6.4847619,1.1071 C4.78364286,1.25516667 4.47695714,1.34400476 4.47695714,3.80084762 L4.47695714,10.1963048 L4.47585238,10.1963048 L4.47585238,10.1963048 Z" id="path-3"></path>
        <path d="M0.509685714,1.10819524 C0.343109524,0.930514286 0.343109524,0.308628571 0.509685714,0.130942857 C1.68127619,0.160552381 2.40607143,0.190171429 3.63391905,0.190171429 C4.66650952,0.190171429 5.11219524,0.161661905 6.3113619,0.130942857 C6.47794762,0.308628571 6.47794762,0.930514286 6.3113619,1.10819524 C4.97209048,1.2562619 4.72166667,1.34510476 4.72166667,3.80194286 L4.72166667,6.43646667 C5.64172857,6.43646667 6.45919048,5.96922857 7.65063333,4.54119048 C9.79854286,1.96589524 10.0776524,1.1959381 8.68321905,1.1071 C8.51553333,0.929419048 8.51553333,0.307528571 8.68321905,0.129847619 C9.88238571,0.159457143 10.9425524,0.18907619 11.7511905,0.18907619 C12.476,0.18907619 12.950381,0.160571429 13.7038571,0.129847619 C13.8704286,0.307528571 13.8704286,0.929419048 13.7038571,1.1071 C12.5885238,1.16632381 11.5647619,1.31658571 10.7186048,2.35087143 L8.32027143,5.28153333 C7.8459,5.81458095 7.67821429,6.14032857 7.67821429,6.3772381 C7.67821429,6.55491905 7.7896381,6.70298571 7.92974286,6.88066667 L12.0578571,12.0323571 C12.4230476,12.4820476 13.0904762,12.8012143 13.8428571,12.8900524 C14.0094286,13.0677381 14.0094286,13.6600095 13.8428571,13.8376905 C13.8428571,13.8376905 12.476,13.808081 11.6949048,13.808081 C10.9690286,13.808081 10.2718143,13.8376905 9.96512381,13.8673095 L9.96512381,13.4527143 C9.96512381,13.0677429 9.9375619,12.7430857 9.54701905,12.2692667 L6.45146667,8.18258095 C6.0333619,7.59030476 5.33504286,7.4422381 4.72166667,7.4422381 L4.72166667,10.1963095 C4.72166667,12.6531476 4.97319524,12.7419905 6.3113619,12.8900571 C6.47794762,13.0677429 6.47794762,13.6896286 6.3113619,13.8673095 C5.11219524,13.8388048 4.66540476,13.808081 3.63391905,13.808081 C2.40607143,13.808081 1.68127619,13.8376905 0.509685714,13.8673095 C0.343109524,13.6896286 0.343109524,13.0677429 0.509685714,12.8900571 C2.21080952,12.7419905 2.51749524,12.6531476 2.51749524,10.1963095 L2.51749524,3.80085238 C2.51749524,1.34401429 2.21080952,1.25517143 0.509685714,1.1082 L0.509685714,1.10819524 L0.509685714,1.10819524 Z" id="path-5"></path>
        <path d="M4.68247619,10.1963048 C4.68247619,12.6531476 4.98914286,12.7726952 6.69028571,12.8900524 C6.85795238,13.0677381 6.85795238,13.6896238 6.69028571,13.8673048 C5.49109524,13.8388 4.79390476,13.808081 3.59471429,13.808081 C2.36690476,13.808081 1.64209524,13.8376905 0.47052381,13.8673048 C0.303904762,13.6896238 0.303904762,13.0677381 0.47052381,12.8900524 C2.17161905,12.7419857 2.47828571,12.6531476 2.47828571,10.1963048 L2.47828571,3.80084762 C2.47828571,1.34400476 2.17161905,1.22555238 0.47052381,1.1071 C0.303904762,0.929419048 0.303904762,0.307528571 0.47052381,0.129847619 C1.66966667,0.159457143 2.36690476,0.189071429 3.56714286,0.189071429 C4.79390476,0.189071429 5.51980952,0.160566667 6.69138095,0.129847619 C6.85909524,0.307528571 6.85909524,0.929419048 6.69138095,1.1071 C4.99028571,1.25516667 4.68357143,1.34400476 4.68357143,3.80084762 L4.68357143,10.1963048 L4.68247619,10.1963048 L4.68247619,10.1963048 Z" id="path-7"></path>
        <path d="M6.46185714,12.8900524 C6.62842857,13.0677381 6.62842857,13.6896238 6.46185714,13.8673048 C5.26157143,13.8388 4.56433333,13.808081 3.36519048,13.808081 C2.13842857,13.808081 1.41252381,13.8376905 0.240952381,13.8673048 C0.0732857143,13.6896238 0.0732857143,13.0677381 0.240952381,12.8900524 C1.94204762,12.7419857 2.2487619,12.6531476 2.2487619,10.1963048 L2.2487619,3.80084762 C2.2487619,1.34400476 1.94204762,1.22555238 0.240952381,1.1071 C0.0732857143,0.929419048 0.0732857143,0.307528571 0.240952381,0.129847619 C1.44014286,0.159457143 2.13733333,0.189071429 3.33652381,0.189071429 C4.09,0.189071429 5.26157143,0.129847619 6.29304762,0.129847619 C10.2535238,0.129847619 11.0919048,2.20280476 11.0919048,3.74161905 C11.0919048,5.51844286 9.94790476,8.36025714 6.20919048,8.36025714 C5.512,8.36025714 4.95490476,8.2429 4.45295238,8.00489048 L4.45295238,10.1963048 C4.45295238,12.6531476 4.75961905,12.7716 6.46185714,12.8900524 L6.46185714,12.8900524 Z M4.45295238,7.05725714 C5.01004762,7.2941619 5.7072381,7.38300476 6.26547619,7.38300476 C7.94009524,7.38300476 8.66490476,6.2313619 8.66490476,4.09698095 C8.66490476,2.02073333 7.77133333,1.106 6.12647619,1.106 C4.78719048,1.106 4.45295238,1.49098095 4.45295238,2.43861429 L4.45295238,7.05725714 L4.45295238,7.05725714 Z" id="path-9"></path>
        <path d="M4.65866667,7.20422381 L4.65866667,11.645181 C4.65866667,12.2078429 5.04919048,12.948181 5.55114286,12.948181 L7.86780952,12.948181 C9.62409524,12.948181 10.4338571,11.4675 10.8795238,9.72138571 C11.1850952,9.63254762 11.4090476,9.69288095 11.6594762,9.83984286 C11.4642381,11.083619 11.1575238,12.7112762 10.8232857,13.9254333 C10.8232857,13.9254333 8.98204762,13.8662095 7.86671429,13.8662095 L3.56980952,13.8662095 C3.56980952,13.8662095 1.61714286,13.895819 0.445571429,13.9254333 C0.279,13.7477524 0.279,13.1258667 0.445571429,12.948181 C2.1477619,12.8001143 2.45338095,12.7112762 2.45338095,10.2544333 L2.45338095,3.85897619 C2.45338095,1.4021381 2.1477619,1.28368095 0.445571429,1.16522857 C0.279,0.987547619 0.279,0.365661905 0.445571429,0.18797619 C1.64585714,0.217585714 3.5422381,0.247204762 3.5422381,0.247204762 L9.31633333,0.247204762 C9.87452381,0.247204762 10.0686667,0.18797619 10.4592381,0.129847619 C10.5154762,0.129847619 10.5430476,0.158352381 10.5430476,0.218685714 C10.5982381,0.424885714 10.9335714,2.73475238 11.045,3.74161905 C10.8221905,3.85897619 10.570619,3.9193 10.2915238,3.88968571 C9.78957143,2.20280476 9.42661905,1.22445714 7.69680952,1.22445714 L5.54890476,1.22445714 C5.01938095,1.22445714 4.65642857,1.55020476 4.65642857,2.0536381 L4.65642857,6.25768571 L6.24614286,6.25768571 C8.1987619,6.22917619 8.11385714,5.9319381 8.17009524,4.59931905 C8.31019048,4.45125238 8.81214286,4.45125238 8.95114286,4.59931905 C8.92357143,5.33965714 8.896,5.87270476 8.896,6.70189048 C8.896,7.53107143 8.92247619,8.00489048 8.95114286,8.86369048 C8.81214286,9.01175714 8.31019048,9.01175714 8.17009524,8.86369048 C8.11385714,7.76798571 8.22638095,7.20532381 6.24614286,7.20532381 L4.65866667,7.20532381 L4.65866667,7.20422381 L4.65866667,7.20422381 Z" id="path-11"></path>
        <path d="M7.15814286,0.130942857 C11.8158095,0.130942857 14.1027143,3.21076667 14.1027143,7.14719524 C14.1027143,12.3284905 10.6442381,13.8673048 7.54866667,13.8673048 C5.31695238,13.8673048 4.31190476,13.808081 3.47680952,13.808081 C2.24895238,13.808081 1.52414286,13.8376905 0.352571429,13.8673048 C0.184904762,13.6896238 0.184904762,13.0677381 0.352571429,12.8900524 C2.05480952,12.7419857 2.36038095,12.6531476 2.36038095,10.1963095 L2.36038095,3.80084762 C2.36038095,1.34400952 2.05480952,1.22555238 0.352571429,1.1071 C0.184904762,0.929419048 0.184904762,0.307528571 0.352571429,0.129847619 C1.5517619,0.159457143 2.24895238,0.18907619 3.4492381,0.18907619 C3.9787619,0.190052381 6.4322381,0.130942857 7.15814286,0.130942857 L7.15814286,0.130942857 Z M6.87795238,12.8911524 C9.94590476,12.8911524 11.6768095,11.7954429 11.6768095,7.65172381 C11.6768095,4.5719 11.0347619,1.10819524 6.34842857,1.10819524 C5.26066667,1.10819524 4.56457143,1.28587619 4.56457143,2.02621905 L4.56457143,11.5585381 C4.56457143,12.387719 4.75871429,12.8911524 6.87795238,12.8911524 L6.87795238,12.8911524 Z" id="path-13"></path>
        <path d="M4.376,10.1963048 C4.376,12.6531476 4.68161905,12.7726952 6.38380952,12.8900524 C6.55042857,13.0677381 6.55042857,13.6896238 6.38380952,13.8673048 C5.18357143,13.8388 4.48633333,13.808081 3.28719048,13.808081 C2.05933333,13.808081 1.33452381,13.8376905 0.162952381,13.8673048 C-0.00366666667,13.6896238 -0.00366666667,13.0677381 0.162952381,12.8900524 C1.86514286,12.7419857 2.1707619,12.6531476 2.1707619,10.1963048 L2.1707619,3.80084762 C2.1707619,1.34400476 1.86514286,1.22555238 0.162952381,1.1071 C-0.00366666667,0.929419048 -0.00366666667,0.307528571 0.162952381,0.129847619 C1.36319048,0.159457143 2.05933333,0.189071429 3.25957143,0.189071429 C4.48633333,0.189071429 5.2122381,0.160566667 6.38380952,0.129847619 C6.55042857,0.307528571 6.55042857,0.929419048 6.38380952,1.1071 C4.68161905,1.25516667 4.376,1.34400476 4.376,3.80084762 L4.376,10.1963048 L4.376,10.1963048 Z" id="path-15"></path>
        <path d="M6.43352381,18.5633905 C6.6012381,18.7410762 6.6012381,19.3629619 6.43352381,19.5406429 C5.40095238,19.5121381 4.00761905,19.4814143 2.86361905,19.4814143 C1.77695238,19.4814143 1.41404762,19.5110286 0.381428571,19.5406429 C0.214857143,19.3629619 0.214857143,18.7410762 0.381428571,18.5633905 C1.59495238,18.4745524 2.43447619,18.2913857 3.17142857,16.4619143 L9.37133333,1.05731905 C9.68904762,0.263233333 9.8997619,0 10.3123333,0 C10.7029048,0 10.8617619,0.31697619 11.0647143,0.889504762 L16.7836667,16.9357333 C17.2999524,18.4602952 18.2122857,18.4602952 19.2934286,18.5633905 C19.4610952,18.7410762 19.4610952,19.3629619 19.2934286,19.5406429 C18.2608095,19.5121381 17.2569524,19.4814143 16.1129048,19.4814143 C15.0262857,19.4814143 13.4917619,19.5110286 12.4591429,19.5406429 C12.2925714,19.3629619 12.2925714,18.7410762 12.4591429,18.5633905 C13.787381,18.4624857 14.9380476,18.569981 14.5232381,17.3503286 L12.8220952,12.3467143 L7.01933333,12.3467143 C6.35080952,12.3467143 6.18309524,12.4640667 6.043,12.8501429 L4.50847619,17.1419381 C4.07490476,18.3582905 5.38552381,18.485519 6.43352381,18.5633905 L6.43352381,18.5633905 Z M12.3753333,11.1029381 L9.67028571,3.19827619 L9.61404762,3.19827619 L6.81966667,10.7091857 C6.70271429,11.0294524 6.90347619,11.1029381 7.52238095,11.1029381 L12.3753333,11.1029381 L12.3753333,11.1029381 Z" id="path-17"></path>
    </defs>
    <g id="options" stroke="none" stroke-width="1" fill="none" fill-rule="evenodd">
        <g id="Artboard" transform="translate(-143.000000, -301.000000)">
            <g id="Page-1" transform="translate(143.000000, 301.000000)">
                <g id="Group-3">
                    <mask id="mask-2" fill="white">
                        <use xlink:href="#path-1"></use>
                    </mask>
                    <g id="Clip-2"></g>
                    <polygon id="Fill-1" fill="#FFFFFF" mask="url(#mask-2)" points="-2.38095238 -2.05627619 31.0421143 -2.05627619 31.0421143 22.2166571 -2.38095238 22.2166571"></polygon>
                </g>
                <g id="Group-6" transform="translate(27.619048, 5.714286)">
                    <mask id="mask-4" fill="white">
                        <use xlink:href="#path-3"></use>
                    </mask>
                    <g id="Clip-5"></g>
                    <polygon id="Fill-4" fill="#FFFFFF" mask="url(#mask-4)" points="-2.24201429 -2.25110476 8.99147619 -2.25110476 8.99147619 16.2482571 -2.24201429 16.2482571"></polygon>
                </g>
                <g id="Group-9" transform="translate(36.190476, 5.714286)">
                    <mask id="mask-6" fill="white">
                        <use xlink:href="#path-5"></use>
                    </mask>
                    <g id="Clip-8"></g>
                    <polygon id="Fill-7" fill="#FFFFFF" mask="url(#mask-6)" points="-1.9962 -2.25110476 16.3487143 -2.25110476 16.3487143 16.2482619 -1.9962 16.2482619"></polygon>
                </g>
                <g id="Group-12" transform="translate(51.904762, 5.714286)">
                    <mask id="mask-8" fill="white">
                        <use xlink:href="#path-7"></use>
                    </mask>
                    <g id="Clip-11"></g>
                    <polygon id="Fill-10" fill="#FFFFFF" mask="url(#mask-8)" points="-2.03538095 -2.25110476 9.19809524 -2.25110476 9.19809524 16.2482571 -2.03538095 16.2482571"></polygon>
                </g>
                <g id="Group-15" transform="translate(60.952381, 5.714286)">
                    <mask id="mask-10" fill="white">
                        <use xlink:href="#path-9"></use>
                    </mask>
                    <g id="Clip-14"></g>
                    <polygon id="Fill-13" fill="#FFFFFF" mask="url(#mask-10)" points="-2.2657619 -2.25110476 13.4728571 -2.25110476 13.4728571 16.2482571 -2.2657619 16.2482571"></polygon>
                </g>
                <g id="Group-18" transform="translate(73.809524, 5.714286)">
                    <mask id="mask-12" fill="white">
                        <use xlink:href="#path-11"></use>
                    </mask>
                    <g id="Clip-17"></g>
                    <polygon id="Fill-16" fill="#FFFFFF" mask="url(#mask-12)" points="-2.06033333 -2.25110476 14.0404286 -2.25110476 14.0404286 16.3063857 -2.06033333 16.3063857"></polygon>
                </g>
                <g id="Group-21" transform="translate(87.619048, 5.714286)">
                    <mask id="mask-14" fill="white">
                        <use xlink:href="#path-13"></use>
                    </mask>
                    <g id="Clip-20"></g>
                    <polygon id="Fill-19" fill="#FFFFFF" mask="url(#mask-14)" points="-2.15414286 -2.25110476 16.4836667 -2.25110476 16.4836667 16.2482571 -2.15414286 16.2482571"></polygon>
                </g>
                <g id="Group-24" transform="translate(103.809524, 5.714286)">
                    <mask id="mask-16" fill="white">
                        <use xlink:href="#path-15"></use>
                    </mask>
                    <g id="Clip-23"></g>
                    <polygon id="Fill-22" fill="#FFFFFF" mask="url(#mask-16)" points="-2.34295238 -2.25110476 8.88971429 -2.25110476 8.88971429 16.2482571 -2.34295238 16.2482571"></polygon>
                </g>
                <g id="Group-27" transform="translate(111.428571, 0.000000)">
                    <mask id="mask-18" fill="white">
                        <use xlink:href="#path-17"></use>
                    </mask>
                    <g id="Clip-26"></g>
                    <polygon id="Fill-25" fill="#FFFFFF" mask="url(#mask-18)" points="-2.12442857 -2.38095238 21.8001429 -2.38095238 21.8001429 21.9215952 -2.12442857 21.9215952"></polygon>
                </g>
            </g>
        </g>
    </g>
</svg>