<?xml version="1.0" encoding="UTF-8"?>
<svg width="129px" height="20px" viewBox="0 0 129 20" version="1.1" xmlns="http://www.w3.org/2000/svg" xmlns:xlink="http://www.w3.org/1999/xlink">
    <!-- Generator: Sketch 40.1 (33804) - http://www.bohemiancoding.com/sketch -->
    <title>Group 6</title>
    <desc>Created with Sketch.</desc>
    <defs>
        <path d="M16.0671524,0.32467619 C17.0997381,0.353180952 17.6292667,0.3839 18.270219,0.3839 C18.9122762,0.3839 19.6094905,0.354290476 20.3067095,0.32467619 C20.4732905,0.501261905 20.4732905,1.12424762 20.3067095,1.30192857 C18.8560143,1.53883333 18.2503619,2.66634762 17.564181,4.0549 L15.5254857,8.1734 L19.0932,16.0155429 L19.2211714,16.0155429 L24.5186857,3.84760952 C25.1794952,2.24517619 25.1320619,1.44889524 23.319519,1.30192857 C23.1518333,1.12424762 23.1518333,0.502357143 23.319519,0.32467619 C24.6301095,0.353180952 25.4387476,0.3839 26.0808048,0.3839 C26.7228619,0.3839 27.4200762,0.354290476 28.5354,0.32467619 C28.7030857,0.501261905 28.7030857,1.12424762 28.5354,1.30192857 C26.6941762,1.53883333 26.3742524,2.6696381 25.7939762,4.0549 L19.1913857,19.1545905 C18.996119,19.5987952 18.8284333,19.8357048 18.5228524,19.8357048 C18.2437429,19.8357048 18.0286238,19.5955048 17.8807952,19.1545905 L14.1288476,10.5600429 L10.0150524,19.1545905 C9.84847143,19.5987952 9.6521,19.8357048 9.34541429,19.8357048 C9.06740952,19.8357048 8.87104286,19.5987952 8.7044619,19.1545905 L2.63691857,3.99677143 C1.78635952,1.8942 1.73009667,1.45109048 0.140400238,1.30302381 C-0.0272846048,1.1253381 -0.0548643333,0.503452381 0.112820476,0.325771429 C1.42341,0.35427619 1.89778143,0.385 3.01310619,0.385 C4.10085095,0.385 4.79806667,0.355390476 6.1097619,0.325771429 C6.27744286,0.502357143 6.27744286,1.1253381 6.1097619,1.30302381 C4.35237857,1.50921905 4.27736143,1.97755714 4.97788571,3.67101905 L10.0845524,16.0166333 L10.2125238,16.0166333 L13.3279286,9.28994286 L10.9770333,3.99677143 C10.0426333,1.8942 9.81978571,1.48070476 8.61951429,1.30302381 C8.45293333,1.1253381 8.42425238,0.503452381 8.5919381,0.325771429 C9.48441905,0.35427619 9.95879048,0.385 11.0741143,0.385 C12.1618619,0.385 12.6086524,0.355390476 13.6125571,0.325771429 C13.7802381,0.502357143 13.7802381,1.1253381 13.6125571,1.30302381 C12.4409667,1.48070476 12.5523905,1.98304286 13.3169,3.67101905 L14.6892667,6.662 L14.8117238,6.79471429 L16.2899952,3.8487 C17.1515857,2.13220476 17.266319,1.48070476 16.0671524,1.30302381 C15.8994667,1.12314762 15.8994667,0.501261905 16.0671524,0.32467619 L16.0671524,0.32467619 Z" id="path-1"></path>
        <path d="M32.0949,15.9105905 C32.0949,18.3674333 32.4015857,18.486981 34.1027048,18.6043381 C34.2703905,18.7820238 34.2703905,19.4039095 34.1027048,19.5815905 C32.9035381,19.5530857 32.2063238,19.5223667 31.0071571,19.5223667 C29.7793048,19.5223667 29.0545095,19.5519762 27.8829238,19.5815905 C27.7163429,19.4039095 27.7163429,18.7820238 27.8829238,18.6043381 C29.5840429,18.4562714 29.8918286,18.3674333 29.8918286,15.9105905 L29.8918286,9.51513333 C29.8918286,7.05829048 29.5851429,6.9398381 27.8829238,6.82138571 C27.7163429,6.64370476 27.7163429,6.02181429 27.8829238,5.84413333 C29.0820905,5.87374286 29.7793048,5.90335714 30.9795762,5.90335714 C32.2063238,5.90335714 32.9322238,5.87485238 34.1038095,5.84413333 C34.2714952,6.02181429 34.2714952,6.64370476 34.1038095,6.82138571 C32.4026905,6.96945238 32.0960048,7.05829048 32.0960048,9.51513333 L32.0960048,15.9105905 L32.0949,15.9105905 L32.0949,15.9105905 Z" id="path-3"></path>
        <path d="M36.7001619,6.82248095 C36.5335857,6.6448 36.5335857,6.02291429 36.7001619,5.84522857 C37.8717524,5.8748381 38.5965476,5.90445714 39.8243952,5.90445714 C40.8569857,5.90445714 41.3026714,5.87594762 42.5018381,5.84522857 C42.6684238,6.02291429 42.6684238,6.6448 42.5018381,6.82248095 C41.1625667,6.97054762 40.9121429,7.05939048 40.9121429,9.51622857 L40.9121429,12.1507524 C41.8322048,12.1507524 42.6496667,11.6835143 43.8411095,10.2554762 C45.989019,7.68018095 46.2681286,6.91022381 44.8736952,6.82138571 C44.7060095,6.64370476 44.7060095,6.02181429 44.8736952,5.84413333 C46.0728619,5.87374286 47.1330286,5.9033619 47.9416667,5.9033619 C48.6664762,5.9033619 49.1408571,5.87485714 49.8943333,5.84413333 C50.0609048,6.02181429 50.0609048,6.64370476 49.8943333,6.82138571 C48.779,6.88060952 47.7552381,7.03087143 46.909081,8.06515714 L44.5107476,10.995819 C44.0363762,11.5288667 43.8686905,11.8546143 43.8686905,12.0915238 C43.8686905,12.2692048 43.9801143,12.4172714 44.120219,12.5949524 L48.2483333,17.7466429 C48.6135238,18.1963333 49.2809524,18.5155 50.0333333,18.6043381 C50.1999048,18.7820238 50.1999048,19.3742952 50.0333333,19.5519762 C50.0333333,19.5519762 48.6664762,19.5223667 47.885381,19.5223667 C47.1595048,19.5223667 46.4622905,19.5519762 46.1556,19.5815952 L46.1556,19.167 C46.1556,18.7820286 46.1280381,18.4573714 45.7374952,17.9835524 L42.6419429,13.8968667 C42.2238381,13.3045905 41.525519,13.1565238 40.9121429,13.1565238 L40.9121429,15.9105952 C40.9121429,18.3674333 41.1636714,18.4562762 42.5018381,18.6043429 C42.6684238,18.7820286 42.6684238,19.4039143 42.5018381,19.5815952 C41.3026714,19.5530905 40.855881,19.5223667 39.8243952,19.5223667 C38.5965476,19.5223667 37.8717524,19.5519762 36.7001619,19.5815952 C36.5335857,19.4039143 36.5335857,18.7820286 36.7001619,18.6043429 C38.4012857,18.4562762 38.7079714,18.3674333 38.7079714,15.9105952 L38.7079714,9.5151381 C38.7079714,7.0583 38.4012857,6.96945714 36.7001619,6.82248571 L36.7001619,6.82248095 L36.7001619,6.82248095 Z" id="path-5"></path>
        <path d="M56.5872381,15.9105905 C56.5872381,18.3674333 56.8939048,18.486981 58.5950476,18.6043381 C58.7627143,18.7820238 58.7627143,19.4039095 58.5950476,19.5815905 C57.3958571,19.5530857 56.6986667,19.5223667 55.4994762,19.5223667 C54.2716667,19.5223667 53.5468571,19.5519762 52.3752857,19.5815905 C52.2086667,19.4039095 52.2086667,18.7820238 52.3752857,18.6043381 C54.076381,18.4562714 54.3830476,18.3674333 54.3830476,15.9105905 L54.3830476,9.51513333 C54.3830476,7.05829048 54.076381,6.9398381 52.3752857,6.82138571 C52.2086667,6.64370476 52.2086667,6.02181429 52.3752857,5.84413333 C53.5744286,5.87374286 54.2716667,5.90335714 55.4719048,5.90335714 C56.6986667,5.90335714 57.4245714,5.87485238 58.5961429,5.84413333 C58.7638571,6.02181429 58.7638571,6.64370476 58.5961429,6.82138571 C56.8950476,6.96945238 56.5883333,7.05829048 56.5883333,9.51513333 L56.5883333,15.9105905 L56.5872381,15.9105905 L56.5872381,15.9105905 Z" id="path-7"></path>
        <path d="M67.4142381,18.6043381 C67.5808095,18.7820238 67.5808095,19.4039095 67.4142381,19.5815905 C66.2139524,19.5530857 65.5167143,19.5223667 64.3175714,19.5223667 C63.0908095,19.5223667 62.3649048,19.5519762 61.1933333,19.5815905 C61.0256667,19.4039095 61.0256667,18.7820238 61.1933333,18.6043381 C62.8944286,18.4562714 63.2011429,18.3674333 63.2011429,15.9105905 L63.2011429,9.51513333 C63.2011429,7.05829048 62.8944286,6.9398381 61.1933333,6.82138571 C61.0256667,6.64370476 61.0256667,6.02181429 61.1933333,5.84413333 C62.3925238,5.87374286 63.0897143,5.90335714 64.2889048,5.90335714 C65.042381,5.90335714 66.2139524,5.84413333 67.2454286,5.84413333 C71.2059048,5.84413333 72.0442857,7.91709048 72.0442857,9.45590476 C72.0442857,11.2327286 70.9002857,14.0745429 67.1615714,14.0745429 C66.464381,14.0745429 65.9072857,13.9571857 65.4053333,13.7191762 L65.4053333,15.9105905 C65.4053333,18.3674333 65.712,18.4858857 67.4142381,18.6043381 L67.4142381,18.6043381 Z M65.4053333,12.7715429 C65.9624286,13.0084476 66.659619,13.0972905 67.2178571,13.0972905 C68.8924762,13.0972905 69.6172857,11.9456476 69.6172857,9.81126667 C69.6172857,7.73501905 68.7237143,6.82028571 67.0788571,6.82028571 C65.7395714,6.82028571 65.4053333,7.20526667 65.4053333,8.1529 L65.4053333,12.7715429 L65.4053333,12.7715429 Z" id="path-9"></path>
        <path d="M78.4681905,12.9185095 L78.4681905,17.3594667 C78.4681905,17.9221286 78.8587143,18.6624667 79.3606667,18.6624667 L81.6773333,18.6624667 C83.433619,18.6624667 84.243381,17.1817857 84.6890476,15.4356714 C84.994619,15.3468333 85.2185714,15.4071667 85.469,15.5541286 C85.2737619,16.7979048 84.9670476,18.4255619 84.6328095,19.639719 C84.6328095,19.639719 82.7915714,19.5804952 81.6762381,19.5804952 L77.3793333,19.5804952 C77.3793333,19.5804952 75.4266667,19.6101048 74.2550952,19.639719 C74.0885238,19.4620381 74.0885238,18.8401524 74.2550952,18.6624667 C75.9572857,18.5144 76.2629048,18.4255619 76.2629048,15.968719 L76.2629048,9.5732619 C76.2629048,7.11642381 75.9572857,6.99796667 74.2550952,6.87951429 C74.0885238,6.70183333 74.0885238,6.07994762 74.2550952,5.9022619 C75.455381,5.93187143 77.3517619,5.96149048 77.3517619,5.96149048 L83.1258571,5.96149048 C83.6840476,5.96149048 83.8781905,5.9022619 84.2687619,5.84413333 C84.325,5.84413333 84.3525714,5.8726381 84.3525714,5.93297143 C84.4077619,6.13917143 84.7430952,8.4490381 84.8545238,9.45590476 C84.6317143,9.5732619 84.3801429,9.63358571 84.1010476,9.60397143 C83.5990952,7.91709048 83.2361429,6.93874286 81.5063333,6.93874286 L79.3584286,6.93874286 C78.8289048,6.93874286 78.4659524,7.26449048 78.4659524,7.76792381 L78.4659524,11.9719714 L80.0556667,11.9719714 C82.0082857,11.9434619 81.923381,11.6462238 81.979619,10.3136048 C82.1197143,10.1655381 82.6216667,10.1655381 82.7606667,10.3136048 C82.7330952,11.0539429 82.7055238,11.5869905 82.7055238,12.4161762 C82.7055238,13.2453571 82.732,13.7191762 82.7606667,14.5779762 C82.6216667,14.7260429 82.1197143,14.7260429 81.979619,14.5779762 C81.923381,13.4822714 82.0359048,12.9196095 80.0556667,12.9196095 L78.4681905,12.9196095 L78.4681905,12.9185095 L78.4681905,12.9185095 Z" id="path-11"></path>
        <path d="M94.7771905,5.84522857 C99.4348571,5.84522857 101.721762,8.92505238 101.721762,12.861481 C101.721762,18.0427762 98.2632857,19.5815905 95.1677143,19.5815905 C92.936,19.5815905 91.9309524,19.5223667 91.0958571,19.5223667 C89.868,19.5223667 89.1431905,19.5519762 87.971619,19.5815905 C87.8039524,19.4039095 87.8039524,18.7820238 87.971619,18.6043381 C89.6738571,18.4562714 89.9794286,18.3674333 89.9794286,15.9105952 L89.9794286,9.51513333 C89.9794286,7.05829524 89.6738571,6.9398381 87.971619,6.82138571 C87.8039524,6.64370476 87.8039524,6.02181429 87.971619,5.84413333 C89.1708095,5.87374286 89.868,5.9033619 91.0682857,5.9033619 C91.5978095,5.9043381 94.0512857,5.84522857 94.7771905,5.84522857 L94.7771905,5.84522857 Z M94.497,18.6054381 C97.5649524,18.6054381 99.2958571,17.5097286 99.2958571,13.3660095 C99.2958571,10.2861857 98.6538095,6.82248095 93.9674762,6.82248095 C92.8797143,6.82248095 92.183619,7.0001619 92.183619,7.74050476 L92.183619,17.2728238 C92.183619,18.1020048 92.3777619,18.6054381 94.497,18.6054381 L94.497,18.6054381 Z" id="path-13"></path>
        <path d="M108.185524,15.9105905 C108.185524,18.3674333 108.491143,18.486981 110.193333,18.6043381 C110.359952,18.7820238 110.359952,19.4039095 110.193333,19.5815905 C108.993095,19.5530857 108.295857,19.5223667 107.096714,19.5223667 C105.868857,19.5223667 105.144048,19.5519762 103.972476,19.5815905 C103.805857,19.4039095 103.805857,18.7820238 103.972476,18.6043381 C105.674667,18.4562714 105.980286,18.3674333 105.980286,15.9105905 L105.980286,9.51513333 C105.980286,7.05829048 105.674667,6.9398381 103.972476,6.82138571 C103.805857,6.64370476 103.805857,6.02181429 103.972476,5.84413333 C105.172714,5.87374286 105.868857,5.90335714 107.069095,5.90335714 C108.295857,5.90335714 109.021762,5.87485238 110.193333,5.84413333 C110.359952,6.02181429 110.359952,6.64370476 110.193333,6.82138571 C108.491143,6.96945238 108.185524,7.05829048 108.185524,9.51513333 L108.185524,15.9105905 L108.185524,15.9105905 Z" id="path-15"></path>
        <path d="M117.862095,18.5633905 C118.02981,18.7410762 118.02981,19.3629619 117.862095,19.5406429 C116.829524,19.5121381 115.43619,19.4814143 114.29219,19.4814143 C113.205524,19.4814143 112.842619,19.5110286 111.81,19.5406429 C111.643429,19.3629619 111.643429,18.7410762 111.81,18.5633905 C113.023524,18.4745524 113.863048,18.2913857 114.6,16.4619143 L120.799905,1.05731905 C121.117619,0.263233333 121.328333,0 121.740905,0 C122.131476,0 122.290333,0.31697619 122.493286,0.889504762 L128.212238,16.9357333 C128.728524,18.4602952 129.640857,18.4602952 130.722,18.5633905 C130.889667,18.7410762 130.889667,19.3629619 130.722,19.5406429 C129.689381,19.5121381 128.685524,19.4814143 127.541476,19.4814143 C126.454857,19.4814143 124.920333,19.5110286 123.887714,19.5406429 C123.721143,19.3629619 123.721143,18.7410762 123.887714,18.5633905 C125.215952,18.4624857 126.366619,18.569981 125.95181,17.3503286 L124.250667,12.3467143 L118.447905,12.3467143 C117.779381,12.3467143 117.611667,12.4640667 117.471571,12.8501429 L115.937048,17.1419381 C115.503476,18.3582905 116.814095,18.485519 117.862095,18.5633905 L117.862095,18.5633905 Z M123.803905,11.1029381 L121.098857,3.19827619 L121.042619,3.19827619 L118.248238,10.7091857 C118.131286,11.0294524 118.332048,11.1029381 118.950952,11.1029381 L123.803905,11.1029381 L123.803905,11.1029381 Z" id="path-17"></path>
    </defs>
    <g id="options" stroke="none" stroke-width="1" fill="none" fill-rule="evenodd">
        <g id="Artboard" transform="translate(-143.000000, -301.000000)">
            <g id="Page-1" transform="translate(143.000000, 301.000000)">
                <g id="Group-6">
                    <mask id="mask-2" fill="white">
                        <use xlink:href="#path-1"></use>
                    </mask>
                    <use id="Clip-2" fill="#000000" xlink:href="#path-1"></use>
                    <mask id="mask-4" fill="white">
                        <use xlink:href="#path-3"></use>
                    </mask>
                    <use id="Clip-5" fill="#000000" xlink:href="#path-3"></use>
                    <mask id="mask-6" fill="white">
                        <use xlink:href="#path-5"></use>
                    </mask>
                    <use id="Clip-8" fill="#000000" xlink:href="#path-5"></use>
                    <mask id="mask-8" fill="white">
                        <use xlink:href="#path-7"></use>
                    </mask>
                    <use id="Clip-11" fill="#000000" xlink:href="#path-7"></use>
                    <mask id="mask-10" fill="white">
                        <use xlink:href="#path-9"></use>
                    </mask>
                    <use id="Clip-14" fill="#000000" xlink:href="#path-9"></use>
                    <mask id="mask-12" fill="white">
                        <use xlink:href="#path-11"></use>
                    </mask>
                    <use id="Clip-17" fill="#000000" xlink:href="#path-11"></use>
                    <mask id="mask-14" fill="white">
                        <use xlink:href="#path-13"></use>
                    </mask>
                    <use id="Clip-20" fill="#000000" xlink:href="#path-13"></use>
                    <mask id="mask-16" fill="white">
                        <use xlink:href="#path-15"></use>
                    </mask>
                    <use id="Clip-23" fill="#000000" xlink:href="#path-15"></use>
                    <mask id="mask-18" fill="white">
                        <use xlink:href="#path-17"></use>
                    </mask>
                    <use id="Clip-26" fill="#000000" xlink:href="#path-17"></use>
                </g>
            </g>
        </g>
    </g>
</svg>