<?xml version="1.0" encoding="UTF-8"?>
<svg width="131px" height="20px" viewBox="0 0 131 20" version="1.1" xmlns="http://www.w3.org/2000/svg" xmlns:xlink="http://www.w3.org/1999/xlink">
    <!-- Generator: Sketch 40.1 (33804) - http://www.bohemiancoding.com/sketch -->
    <title>Group 6</title>
    <desc>Created with Sketch.</desc>
    <defs>
        <path d="M6.4142381,13.6043381 C6.58080952,13.7820238 6.58080952,14.4039095 6.4142381,14.5815905 C5.21395238,14.5530857 4.51671429,14.5223667 3.31757143,14.5223667 C2.09080952,14.5223667 1.36490476,14.5519762 0.193333333,14.5815905 C0.0256666667,14.4039095 0.0256666667,13.7820238 0.193333333,13.6043381 C1.89442857,13.4562714 2.20114286,13.3674333 2.20114286,10.9105905 L2.20114286,4.51513333 C2.20114286,2.05829048 1.89442857,1.9398381 0.193333333,1.82138571 C0.0256666667,1.64370476 0.0256666667,1.02181429 0.193333333,0.844133333 C1.39252381,0.873742857 2.08971429,0.903357143 3.28890476,0.903357143 C4.04238095,0.903357143 5.21395238,0.844133333 6.24542857,0.844133333 C10.2059048,0.844133333 11.0442857,2.91709048 11.0442857,4.45590476 C11.0442857,6.23272857 9.90028571,9.07454286 6.16157143,9.07454286 C5.46438095,9.07454286 4.90728571,8.95718571 4.40533333,8.71917619 L4.40533333,10.9105905 C4.40533333,13.3674333 4.712,13.4858857 6.4142381,13.6043381 L6.4142381,13.6043381 Z M4.40533333,7.77154286 C4.96242857,8.00844762 5.65961905,8.09729048 6.21785714,8.09729048 C7.89247619,8.09729048 8.61728571,6.94564762 8.61728571,4.81126667 C8.61728571,2.73501905 7.72371429,1.82028571 6.07885714,1.82028571 C4.73957143,1.82028571 4.40533333,2.20526667 4.40533333,3.1529 L4.40533333,7.77154286 L4.40533333,7.77154286 Z" id="path-1"></path>
        <path d="M17.4681905,7.91850952 L17.4681905,12.3594667 C17.4681905,12.9221286 17.8587143,13.6624667 18.3606667,13.6624667 L20.6773333,13.6624667 C22.433619,13.6624667 23.243381,12.1817857 23.6890476,10.4356714 C23.994619,10.3468333 24.2185714,10.4071667 24.469,10.5541286 C24.2737619,11.7979048 23.9670476,13.4255619 23.6328095,14.639719 C23.6328095,14.639719 21.7915714,14.5804952 20.6762381,14.5804952 L16.3793333,14.5804952 C16.3793333,14.5804952 14.4266667,14.6101048 13.2550952,14.639719 C13.0885238,14.4620381 13.0885238,13.8401524 13.2550952,13.6624667 C14.9572857,13.5144 15.2629048,13.4255619 15.2629048,10.968719 L15.2629048,4.5732619 C15.2629048,2.11642381 14.9572857,1.99796667 13.2550952,1.87951429 C13.0885238,1.70183333 13.0885238,1.07994762 13.2550952,0.902261905 C14.455381,0.931871429 16.3517619,0.961490476 16.3517619,0.961490476 L22.1258571,0.961490476 C22.6840476,0.961490476 22.8781905,0.902261905 23.2687619,0.844133333 C23.325,0.844133333 23.3525714,0.872638095 23.3525714,0.932971429 C23.4077619,1.13917143 23.7430952,3.4490381 23.8545238,4.45590476 C23.6317143,4.5732619 23.3801429,4.63358571 23.1010476,4.60397143 C22.5990952,2.91709048 22.2361429,1.93874286 20.5063333,1.93874286 L18.3584286,1.93874286 C17.8289048,1.93874286 17.4659524,2.26449048 17.4659524,2.76792381 L17.4659524,6.97197143 L19.0556667,6.97197143 C21.0082857,6.9434619 20.923381,6.64622381 20.979619,5.31360476 C21.1197143,5.1655381 21.6216667,5.1655381 21.7606667,5.31360476 C21.7330952,6.05394286 21.7055238,6.58699048 21.7055238,7.41617619 C21.7055238,8.24535714 21.732,8.71917619 21.7606667,9.57797619 C21.6216667,9.72604286 21.1197143,9.72604286 20.979619,9.57797619 C20.923381,8.48227143 21.0359048,7.91960952 19.0556667,7.91960952 L17.4681905,7.91960952 L17.4681905,7.91850952 L17.4681905,7.91850952 Z" id="path-3"></path>
        <path d="M33.7771905,0.845228571 C38.4348571,0.845228571 40.7217619,3.92505238 40.7217619,7.86148095 C40.7217619,13.0427762 37.2632857,14.5815905 34.1677143,14.5815905 C31.936,14.5815905 30.9309524,14.5223667 30.0958571,14.5223667 C28.868,14.5223667 28.1431905,14.5519762 26.971619,14.5815905 C26.8039524,14.4039095 26.8039524,13.7820238 26.971619,13.6043381 C28.6738571,13.4562714 28.9794286,13.3674333 28.9794286,10.9105952 L28.9794286,4.51513333 C28.9794286,2.05829524 28.6738571,1.9398381 26.971619,1.82138571 C26.8039524,1.64370476 26.8039524,1.02181429 26.971619,0.844133333 C28.1708095,0.873742857 28.868,0.903361905 30.0682857,0.903361905 C30.5978095,0.904338095 33.0512857,0.845228571 33.7771905,0.845228571 L33.7771905,0.845228571 Z M33.497,13.6054381 C36.5649524,13.6054381 38.2958571,12.5097286 38.2958571,8.36600952 C38.2958571,5.28618571 37.6538095,1.82248095 32.9674762,1.82248095 C31.8797143,1.82248095 31.183619,2.0001619 31.183619,2.74050476 L31.183619,12.2728238 C31.183619,13.1020048 31.3777619,13.6054381 33.497,13.6054381 L33.497,13.6054381 Z" id="path-5"></path>
        <path d="M47.1855238,10.9105905 C47.1855238,13.3674333 47.4911429,13.486981 49.1933333,13.6043381 C49.3599524,13.7820238 49.3599524,14.4039095 49.1933333,14.5815905 C47.9930952,14.5530857 47.2958571,14.5223667 46.0967143,14.5223667 C44.8688571,14.5223667 44.1440476,14.5519762 42.9724762,14.5815905 C42.8058571,14.4039095 42.8058571,13.7820238 42.9724762,13.6043381 C44.6746667,13.4562714 44.9802857,13.3674333 44.9802857,10.9105905 L44.9802857,4.51513333 C44.9802857,2.05829048 44.6746667,1.9398381 42.9724762,1.82138571 C42.8058571,1.64370476 42.8058571,1.02181429 42.9724762,0.844133333 C44.1727143,0.873742857 44.8688571,0.903357143 46.0690952,0.903357143 C47.2958571,0.903357143 48.0217619,0.874852381 49.1933333,0.844133333 C49.3599524,1.02181429 49.3599524,1.64370476 49.1933333,1.82138571 C47.4911429,1.96945238 47.1855238,2.05829048 47.1855238,4.51513333 L47.1855238,10.9105905 L47.1855238,10.9105905 Z" id="path-7"></path>
        <path d="M56.8620952,13.5633905 C57.0298095,13.7410762 57.0298095,14.3629619 56.8620952,14.5406429 C55.8295238,14.5121381 54.4361905,14.4814143 53.2921905,14.4814143 C52.2055238,14.4814143 51.842619,14.5110286 50.81,14.5406429 C50.6434286,14.3629619 50.6434286,13.7410762 50.81,13.5633905 C52.0235238,13.4745524 52.8630476,13.2913857 53.6,11.4619143 L59.7999048,-3.94268095 C60.117619,-4.73676667 60.3283333,-5 60.7409048,-5 C61.1314762,-5 61.2903333,-4.68302381 61.4932857,-4.11049524 L67.2122381,11.9357333 C67.7285238,13.4602952 68.6408571,13.4602952 69.722,13.5633905 C69.8896667,13.7410762 69.8896667,14.3629619 69.722,14.5406429 C68.689381,14.5121381 67.6855238,14.4814143 66.5414762,14.4814143 C65.4548571,14.4814143 63.9203333,14.5110286 62.8877143,14.5406429 C62.7211429,14.3629619 62.7211429,13.7410762 62.8877143,13.5633905 C64.2159524,13.4624857 65.366619,13.569981 64.9518095,12.3503286 L63.2506667,7.34671429 L57.4479048,7.34671429 C56.779381,7.34671429 56.6116667,7.46406667 56.4715714,7.85014286 L54.9370476,12.1419381 C54.5034762,13.3582905 55.8140952,13.485519 56.8620952,13.5633905 L56.8620952,13.5633905 Z M62.8039048,6.1029381 L60.0988571,-1.80172381 L60.042619,-1.80172381 L57.2482381,5.70918571 C57.1312857,6.02945238 57.3320476,6.1029381 57.9509524,6.1029381 L62.8039048,6.1029381 L62.8039048,6.1029381 Z" id="path-9"></path>
        <path d="M-4.4127619,10.9105905 C-4.4127619,13.3674333 -4.10609524,13.486981 -2.40495238,13.6043381 C-2.23728571,13.7820238 -2.23728571,14.4039095 -2.40495238,14.5815905 C-3.60414286,14.5530857 -4.30133333,14.5223667 -5.50052381,14.5223667 C-6.72833333,14.5223667 -7.45314286,14.5519762 -8.62471429,14.5815905 C-8.79133333,14.4039095 -8.79133333,13.7820238 -8.62471429,13.6043381 C-6.92361905,13.4562714 -6.61695238,13.3674333 -6.61695238,10.9105905 L-6.61695238,4.51513333 C-6.61695238,2.05829048 -6.92361905,1.9398381 -8.62471429,1.82138571 C-8.79133333,1.64370476 -8.79133333,1.02181429 -8.62471429,0.844133333 C-7.42557143,0.873742857 -6.72833333,0.903357143 -5.52809524,0.903357143 C-4.30133333,0.903357143 -3.57542857,0.874852381 -2.40385714,0.844133333 C-2.23614286,1.02181429 -2.23614286,1.64370476 -2.40385714,1.82138571 C-4.10495238,1.96945238 -4.41166667,2.05829048 -4.41166667,4.51513333 L-4.41166667,10.9105905 L-4.4127619,10.9105905 L-4.4127619,10.9105905 Z" id="path-11"></path>
        <path d="M-24.2998381,1.82248095 C-24.4664143,1.6448 -24.4664143,1.02291429 -24.2998381,0.845228571 C-23.1282476,0.874838095 -22.4034524,0.904457143 -21.1756048,0.904457143 C-20.1430143,0.904457143 -19.6973286,0.875947619 -18.4981619,0.845228571 C-18.3315762,1.02291429 -18.3315762,1.6448 -18.4981619,1.82248095 C-19.8374333,1.97054762 -20.0878571,2.05939048 -20.0878571,4.51622857 L-20.0878571,7.15075238 C-19.1677952,7.15075238 -18.3503333,6.68351429 -17.1588905,5.25547619 C-15.010981,2.68018095 -14.7318714,1.91022381 -16.1263048,1.82138571 C-16.2939905,1.64370476 -16.2939905,1.02181429 -16.1263048,0.844133333 C-14.9271381,0.873742857 -13.8669714,0.903361905 -13.0583333,0.903361905 C-12.3335238,0.903361905 -11.8591429,0.874857143 -11.1056667,0.844133333 C-10.9390952,1.02181429 -10.9390952,1.64370476 -11.1056667,1.82138571 C-12.221,1.88060952 -13.2447619,2.03087143 -14.090919,3.06515714 L-16.4892524,5.99581905 C-16.9636238,6.52886667 -17.1313095,6.85461429 -17.1313095,7.09152381 C-17.1313095,7.26920476 -17.0198857,7.41727143 -16.879781,7.59495238 L-12.7516667,12.7466429 C-12.3864762,13.1963333 -11.7190476,13.5155 -10.9666667,13.6043381 C-10.8000952,13.7820238 -10.8000952,14.3742952 -10.9666667,14.5519762 C-10.9666667,14.5519762 -12.3335238,14.5223667 -13.114619,14.5223667 C-13.8404952,14.5223667 -14.5377095,14.5519762 -14.8444,14.5815952 L-14.8444,14.167 C-14.8444,13.7820286 -14.8719619,13.4573714 -15.2625048,12.9835524 L-18.3580571,8.89686667 C-18.7761619,8.30459048 -19.474481,8.15652381 -20.0878571,8.15652381 L-20.0878571,10.9105952 C-20.0878571,13.3674333 -19.8363286,13.4562762 -18.4981619,13.6043429 C-18.3315762,13.7820286 -18.3315762,14.4039143 -18.4981619,14.5815952 C-19.6973286,14.5530905 -20.144119,14.5223667 -21.1756048,14.5223667 C-22.4034524,14.5223667 -23.1282476,14.5519762 -24.2998381,14.5815952 C-24.4664143,14.4039143 -24.4664143,13.7820286 -24.2998381,13.6043429 C-22.5987143,13.4562762 -22.2920286,13.3674333 -22.2920286,10.9105952 L-22.2920286,4.5151381 C-22.2920286,2.0583 -22.5987143,1.96945714 -24.2998381,1.82248571 L-24.2998381,1.82248095 L-24.2998381,1.82248095 Z" id="path-13"></path>
        <path d="M-28.9051,10.9105905 C-28.9051,13.3674333 -28.5984143,13.486981 -26.8972952,13.6043381 C-26.7296095,13.7820238 -26.7296095,14.4039095 -26.8972952,14.5815905 C-28.0964619,14.5530857 -28.7936762,14.5223667 -29.9928429,14.5223667 C-31.2206952,14.5223667 -31.9454905,14.5519762 -33.1170762,14.5815905 C-33.2836571,14.4039095 -33.2836571,13.7820238 -33.1170762,13.6043381 C-31.4159571,13.4562714 -31.1081714,13.3674333 -31.1081714,10.9105905 L-31.1081714,4.51513333 C-31.1081714,2.05829048 -31.4148571,1.9398381 -33.1170762,1.82138571 C-33.2836571,1.64370476 -33.2836571,1.02181429 -33.1170762,0.844133333 C-31.9179095,0.873742857 -31.2206952,0.903357143 -30.0204238,0.903357143 C-28.7936762,0.903357143 -28.0677762,0.874852381 -26.8961905,0.844133333 C-26.7285048,1.02181429 -26.7285048,1.64370476 -26.8961905,1.82138571 C-28.5973095,1.96945238 -28.9039952,2.05829048 -28.9039952,4.51513333 L-28.9039952,10.9105905 L-28.9051,10.9105905 L-28.9051,10.9105905 Z" id="path-15"></path>
        <path d="M-44.9328476,-4.67532381 C-43.9002619,-4.64681905 -43.3707333,-4.6161 -42.729781,-4.6161 C-42.0877238,-4.6161 -41.3905095,-4.64570952 -40.6932905,-4.67532381 C-40.5267095,-4.4987381 -40.5267095,-3.87575238 -40.6932905,-3.69807143 C-42.1439857,-3.46116667 -42.7496381,-2.33365238 -43.435819,-0.9451 L-45.4745143,3.1734 L-41.9068,11.0155429 L-41.7788286,11.0155429 L-36.4813143,-1.15239048 C-35.8205048,-2.75482381 -35.8679381,-3.55110476 -37.680481,-3.69807143 C-37.8481667,-3.87575238 -37.8481667,-4.49764286 -37.680481,-4.67532381 C-36.3698905,-4.64681905 -35.5612524,-4.6161 -34.9191952,-4.6161 C-34.2771381,-4.6161 -33.5799238,-4.64570952 -32.4646,-4.67532381 C-32.2969143,-4.4987381 -32.2969143,-3.87575238 -32.4646,-3.69807143 C-34.3058238,-3.46116667 -34.6257476,-2.3303619 -35.2060238,-0.9451 L-41.8086143,14.1545905 C-42.003881,14.5987952 -42.1715667,14.8357048 -42.4771476,14.8357048 C-42.7562571,14.8357048 -42.9713762,14.5955048 -43.1192048,14.1545905 L-46.8711524,5.56004286 L-50.9849476,14.1545905 C-51.1515286,14.5987952 -51.3479,14.8357048 -51.6545857,14.8357048 C-51.9325905,14.8357048 -52.1289571,14.5987952 -52.2955381,14.1545905 L-58.3630814,-1.00322857 C-59.2136405,-3.1058 -59.2699033,-3.54890952 -60.8595998,-3.69697619 C-61.0272846,-3.8746619 -61.0548643,-4.49654762 -60.8871795,-4.67422857 C-59.57659,-4.64572381 -59.1022186,-4.615 -57.9868938,-4.615 C-56.899149,-4.615 -56.2019333,-4.64460952 -54.8902381,-4.67422857 C-54.7225571,-4.49764286 -54.7225571,-3.8746619 -54.8902381,-3.69697619 C-56.6476214,-3.49078095 -56.7226386,-3.02244286 -56.0221143,-1.32898095 L-50.9154476,11.0166333 L-50.7874762,11.0166333 L-47.6720714,4.28994286 L-50.0229667,-1.00322857 C-50.9573667,-3.1058 -51.1802143,-3.51929524 -52.3804857,-3.69697619 C-52.5470667,-3.8746619 -52.5757476,-4.49654762 -52.4080619,-4.67422857 C-51.515581,-4.64572381 -51.0412095,-4.615 -49.9258857,-4.615 C-48.8381381,-4.615 -48.3913476,-4.64460952 -47.3874429,-4.67422857 C-47.2197619,-4.49764286 -47.2197619,-3.8746619 -47.3874429,-3.69697619 C-48.5590333,-3.51929524 -48.4476095,-3.01695714 -47.6831,-1.32898095 L-46.3107333,1.662 L-46.1882762,1.79471429 L-44.7100048,-1.1513 C-43.8484143,-2.86779524 -43.733681,-3.51929524 -44.9328476,-3.69697619 C-45.1005333,-3.87685238 -45.1005333,-4.4987381 -44.9328476,-4.67532381 L-44.9328476,-4.67532381 Z" id="path-17"></path>
    </defs>
    <g id="options" stroke="none" stroke-width="1" fill="none" fill-rule="evenodd">
        <g id="Artboard" transform="translate(-143.000000, -301.000000)">
            <g id="Page-1" transform="translate(204.000000, 306.000000)">
                <g id="Group-6">
                    <mask id="mask-2" fill="white">
                        <use xlink:href="#path-1"></use>
                    </mask>
                    <use id="Clip-14" fill="#FFFFFF" xlink:href="#path-1"></use>
                    <mask id="mask-4" fill="white">
                        <use xlink:href="#path-3"></use>
                    </mask>
                    <use id="Clip-17" fill="#FFFFFF" xlink:href="#path-3"></use>
                    <mask id="mask-6" fill="white">
                        <use xlink:href="#path-5"></use>
                    </mask>
                    <use id="Clip-20" fill="#FFFFFF" xlink:href="#path-5"></use>
                    <mask id="mask-8" fill="white">
                        <use xlink:href="#path-7"></use>
                    </mask>
                    <use id="Clip-23" fill="#FFFFFF" xlink:href="#path-7"></use>
                    <mask id="mask-10" fill="white">
                        <use xlink:href="#path-9"></use>
                    </mask>
                    <use id="Clip-26" fill="#FFFFFF" xlink:href="#path-9"></use>
                    <mask id="mask-12" fill="white">
                        <use xlink:href="#path-11"></use>
                    </mask>
                    <use id="Clip-11" fill="#FFFFFF" xlink:href="#path-11"></use>
                    <mask id="mask-14" fill="white">
                        <use xlink:href="#path-13"></use>
                    </mask>
                    <use id="Clip-8" fill="#FFFFFF" xlink:href="#path-13"></use>
                    <mask id="mask-16" fill="white">
                        <use xlink:href="#path-15"></use>
                    </mask>
                    <use id="Clip-5" fill="#FFFFFF" xlink:href="#path-15"></use>
                    <mask id="mask-18" fill="white">
                        <use xlink:href="#path-17"></use>
                    </mask>
                    <use id="Clip-2" fill="#FFFFFF" xlink:href="#path-17"></use>
                </g>
            </g>
        </g>
    </g>
</svg>